<svg width="31" height="16" viewBox="0 0 31 16" fill="none" xmlns="http://www.w3.org/2000/svg">
<path d="M30.3228 0.29303H8.37631C8.00224 0.29303 7.69903 0.596241 7.69903 0.970307V2.24763H1.24368C0.869617 2.24763 0.566406 2.55084 0.566406 2.92491C0.566406 3.29897 0.869617 3.60218 1.24368 3.60218H7.69903V12.3978H3.84076C3.4667 12.3978 3.16349 12.701 3.16349 13.0751C3.16349 13.4492 3.4667 13.7524 3.84076 13.7524H7.69903V15.0297C7.69903 15.4038 8.00224 15.707 8.37631 15.707H30.3228C30.6969 15.707 31.0001 15.4038 31.0001 15.0297V0.970307C31.0001 0.596241 30.6969 0.29303 30.3228 0.29303ZM28.6521 1.64758L19.3505 9.2833L10.0915 1.64758H28.6521ZM29.6456 14.3525H9.05365V2.54745L18.9187 10.6829C19.0438 10.786 19.1967 10.8377 19.3496 10.8377C19.502 10.8377 19.6545 10.7864 19.7793 10.6839L29.6456 2.58458V14.3525Z" fill="white"/>
</svg>
