<svg width="19" height="29" viewBox="0 0 19 29" fill="none" xmlns="http://www.w3.org/2000/svg">
<path d="M9.50002 0C4.32445 0 0.11377 4.21068 0.11377 9.38625C0.11377 14.0147 3.32416 20.0814 6.01738 24.3558C6.19108 24.6316 6.5554 24.7143 6.83129 24.5405C7.10698 24.3668 7.1897 24.0024 7.01591 23.7267C2.28678 16.2208 1.29416 11.7854 1.29416 9.38625C1.29416 4.86151 4.97528 1.18029 9.50012 1.18029C14.025 1.18029 17.7061 4.86141 17.7061 9.38625C17.7061 16.7343 9.11987 27.9369 9.03312 28.0491C8.83395 28.3071 8.88145 28.6777 9.13944 28.8769C9.24685 28.9599 9.37383 29 9.49983 29C9.67628 29 9.85096 28.9211 9.96722 28.7706C10.3314 28.2993 18.8865 17.1372 18.8865 9.38615C18.8863 4.21068 14.6757 0 9.50002 0Z" fill="white"/>
<path d="M9.49997 6.39324C9.82582 6.39324 10.0901 6.12895 10.0901 5.8031C10.0901 5.47724 9.82582 5.21295 9.49997 5.21295C7.1988 5.21295 5.32666 7.08509 5.32666 9.38626C5.32666 11.6874 7.1988 13.5596 9.49997 13.5596C11.8011 13.5596 13.6733 11.6874 13.6733 9.38626C13.6733 8.46721 13.3803 7.59537 12.8257 6.86486C12.6287 6.6053 12.2585 6.55465 11.9988 6.75166C11.7393 6.94867 11.6885 7.31888 11.8856 7.57855C12.283 8.10191 12.493 8.72707 12.493 9.38626C12.493 11.0366 11.1503 12.3793 9.49997 12.3793C7.84963 12.3793 6.50695 11.0366 6.50695 9.38626C6.50695 7.73592 7.84973 6.39324 9.49997 6.39324Z" fill="white"/>
</svg>
