<svg width="403" height="281" viewBox="0 0 403 281" fill="none" xmlns="http://www.w3.org/2000/svg">
<path opacity="0.5" d="M368.948 86.4008C340.719 29.7592 421.168 57.8711 397.727 17.8791C374.286 -22.1129 179.718 14.054 142.827 38.4349C99.6474 67.228 222.42 165.484 123.641 112.437C24.8627 59.3894 0.302246 158.904 0.302246 191.922C0.302246 241.567 46.1761 281 101.714 281C142.21 281 176.225 259.758 192.163 228.919C205.791 230.752 219.526 231.668 233.276 231.66C334.7 231.66 352.503 223.9 352.503 163.138C352.503 153.729 397.178 143.035 368.948 86.4008Z" fill="url(#paint0_linear)"/>
<defs>
<linearGradient id="paint0_linear" x1="-22.5984" y1="227.61" x2="286.553" y2="-102.335" gradientUnits="userSpaceOnUse">
<stop stop-color="#794AFF"/>
<stop offset="1" stop-color="#4191FC"/>
</linearGradient>
</defs>
</svg>
